<svg xmlns="http://www.w3.org/2000/svg" xmlns:xlink="http://www.w3.org/1999/xlink" width="500" zoomAndPan="magnify" viewBox="0 0 375 374.999991" height="500" preserveAspectRatio="xMidYMid meet" version="1.0"><defs><g/><clipPath id="8f2066b7b9"><path d="M 56.617188 61 L 100 61 L 100 197.152344 L 56.617188 197.152344 Z M 56.617188 61 " clip-rule="nonzero"/></clipPath><clipPath id="f6b0932f87"><path d="M 275.097656 61.667969 L 318.363281 61.667969 L 318.363281 197.144531 L 275.097656 197.144531 Z M 275.097656 61.667969 " clip-rule="nonzero"/></clipPath><clipPath id="95a0a25c0a"><path d="M 167 30.652344 L 208 30.652344 L 208 76 L 167 76 Z M 167 30.652344 " clip-rule="nonzero"/></clipPath><clipPath id="f97dc7e964"><path d="M 103.480469 15.640625 L 271.480469 15.640625 L 271.480469 183.640625 L 103.480469 183.640625 Z M 103.480469 15.640625 " clip-rule="nonzero"/></clipPath><clipPath id="e6e3e2154d"><path d="M 243 99 L 256.03125 99 L 256.03125 123 L 243 123 Z M 243 99 " clip-rule="nonzero"/></clipPath><clipPath id="9818264f7d"><path d="M 118.886719 71.234375 L 231 71.234375 L 231 182.855469 L 118.886719 182.855469 Z M 118.886719 71.234375 " clip-rule="nonzero"/></clipPath></defs><rect x="-37.5" width="450" fill="#ffffff" y="-37.499999" height="449.999989" fill-opacity="1"/><rect x="-37.5" width="450" fill="#ffffff" y="-37.499999" height="449.999989" fill-opacity="1"/><rect x="-37.5" width="450" fill="#ffffff" y="-37.499999" height="449.999989" fill-opacity="1"/><path fill="#004aad" d="M 145.863281 106.574219 C 142.652344 106.574219 139.660156 107.183594 136.886719 108.398438 C 134.109375 109.613281 131.703125 111.253906 129.664062 113.316406 C 127.625 115.382812 126.011719 117.804688 124.820312 120.582031 C 123.628906 123.363281 123.03125 126.316406 123.03125 129.445312 C 123.03125 132.570312 123.628906 135.527344 124.820312 138.304688 C 126.011719 141.085938 127.625 143.507812 129.664062 145.570312 C 131.703125 147.636719 134.109375 149.277344 136.886719 150.492188 C 139.660156 151.707031 142.652344 152.316406 145.863281 152.316406 C 149.027344 152.316406 152 151.707031 154.773438 150.492188 C 157.546875 149.277344 159.964844 147.625 162.027344 145.539062 C 164.085938 143.453125 165.710938 141.03125 166.90625 138.273438 C 168.097656 135.515625 168.695312 132.570312 168.695312 129.445312 C 168.695312 126.316406 168.097656 123.375 166.90625 120.617188 C 165.710938 117.855469 164.085938 115.433594 162.027344 113.351562 C 159.964844 111.265625 157.546875 109.613281 154.773438 108.398438 C 152 107.183594 149.027344 106.574219 145.863281 106.574219 Z M 182.289062 129.445312 C 182.289062 139.609375 178.730469 148.210938 171.621094 155.246094 C 164.421875 162.371094 155.835938 165.933594 145.863281 165.933594 C 135.800781 165.933594 127.214844 162.371094 120.105469 155.246094 C 112.992188 148.125 109.4375 139.523438 109.4375 129.445312 C 109.4375 119.367188 112.992188 110.765625 120.105469 103.640625 C 127.214844 96.519531 135.800781 92.957031 145.863281 92.957031 C 155.835938 92.957031 164.421875 96.519531 171.621094 103.640625 C 175.175781 107.203125 177.832031 111.136719 179.589844 115.433594 C 181.34375 119.734375 182.242188 124.40625 182.289062 129.445312 " fill-opacity="1" fill-rule="nonzero"/><path fill="#004aad" d="M 229.121094 106.574219 C 225.914062 106.574219 222.917969 107.183594 220.144531 108.398438 C 217.367188 109.613281 214.960938 111.253906 212.925781 113.316406 C 210.886719 115.382812 209.269531 117.804688 208.078125 120.582031 C 206.886719 123.363281 206.289062 126.316406 206.289062 129.445312 C 206.289062 132.570312 206.886719 135.527344 208.078125 138.304688 C 209.269531 141.085938 210.886719 143.507812 212.925781 145.570312 C 214.960938 147.636719 217.367188 149.277344 220.144531 150.492188 C 222.917969 151.707031 225.914062 152.316406 229.121094 152.316406 C 232.285156 152.316406 235.253906 151.707031 238.035156 150.492188 C 240.808594 149.277344 243.226562 147.625 245.285156 145.539062 C 247.34375 143.453125 248.972656 141.03125 250.164062 138.273438 C 251.355469 135.515625 251.953125 132.570312 251.953125 129.445312 C 251.953125 126.316406 251.355469 123.375 250.164062 120.617188 C 248.972656 117.855469 247.34375 115.433594 245.285156 113.351562 C 243.226562 111.265625 240.808594 109.613281 238.035156 108.398438 C 235.253906 107.183594 232.285156 106.574219 229.121094 106.574219 Z M 265.546875 129.445312 C 265.546875 139.609375 261.992188 148.210938 254.878906 155.246094 C 247.679688 162.371094 239.09375 165.933594 229.121094 165.933594 C 219.058594 165.933594 210.472656 162.371094 203.363281 155.246094 C 196.25 148.125 192.695312 139.523438 192.695312 129.445312 C 192.695312 119.367188 196.25 110.765625 203.363281 103.640625 C 210.472656 96.519531 219.058594 92.957031 229.121094 92.957031 C 239.09375 92.957031 247.679688 96.519531 254.878906 103.640625 C 258.433594 107.203125 261.089844 111.136719 262.847656 115.433594 C 264.601562 119.734375 265.5 124.40625 265.546875 129.445312 " fill-opacity="1" fill-rule="nonzero"/><g clip-path="url(#8f2066b7b9)"><path fill="#000000" d="M 93.042969 61.746094 C 94.996094 61.746094 96.609375 62.40625 97.890625 63.730469 C 99.167969 65.058594 99.808594 66.675781 99.808594 68.585938 C 99.808594 70.542969 99.167969 72.160156 97.890625 73.441406 C 96.609375 74.722656 94.996094 75.363281 93.042969 75.363281 C 87.667969 75.363281 84.980469 78.054688 84.980469 83.441406 L 84.980469 114.585938 C 84.980469 120.84375 83.546875 125.796875 80.6875 129.445312 C 83.546875 133.09375 84.980469 138.046875 84.980469 144.300781 L 84.980469 175.445312 C 84.980469 180.832031 87.667969 183.527344 93.042969 183.527344 C 94.996094 183.527344 96.609375 184.167969 97.890625 185.449219 C 99.167969 186.730469 99.808594 188.347656 99.808594 190.304688 C 99.808594 192.257812 99.167969 193.890625 97.890625 195.191406 C 96.609375 196.492188 94.996094 197.144531 93.042969 197.144531 C 78.605469 197.144531 71.382812 189.914062 71.382812 175.445312 L 71.382812 144.300781 C 71.382812 138.914062 68.71875 136.222656 63.382812 136.222656 C 61.433594 136.222656 59.816406 135.582031 58.535156 134.300781 C 57.257812 133.019531 56.617188 131.398438 56.617188 129.445312 C 56.617188 127.492188 57.257812 125.871094 58.535156 124.589844 C 59.816406 123.308594 61.433594 122.667969 63.382812 122.667969 C 68.71875 122.667969 71.382812 119.976562 71.382812 114.585938 L 71.382812 83.441406 C 71.382812 68.976562 78.605469 61.746094 93.042969 61.746094 " fill-opacity="1" fill-rule="nonzero"/></g><g clip-path="url(#f6b0932f87)"><path fill="#000000" d="M 303.597656 83.441406 L 303.597656 114.585938 C 303.597656 119.976562 306.265625 122.667969 311.597656 122.667969 C 313.550781 122.667969 315.164062 123.308594 316.445312 124.589844 C 317.726562 125.871094 318.363281 127.492188 318.363281 129.445312 C 318.363281 131.398438 317.726562 133.019531 316.445312 134.300781 C 315.164062 135.582031 313.550781 136.222656 311.597656 136.222656 C 306.265625 136.222656 303.597656 138.914062 303.597656 144.300781 L 303.597656 175.445312 C 303.597656 189.914062 296.378906 197.144531 281.9375 197.144531 C 279.984375 197.144531 278.371094 196.492188 277.089844 195.191406 C 275.8125 193.890625 275.175781 192.257812 275.175781 190.304688 C 275.175781 188.347656 275.8125 186.730469 277.089844 185.449219 C 278.371094 184.167969 279.984375 183.527344 281.9375 183.527344 C 287.316406 183.527344 290.003906 180.832031 290.003906 175.445312 L 290.003906 144.300781 C 290.003906 138.046875 291.4375 133.09375 294.296875 129.445312 C 291.4375 125.796875 290.003906 120.84375 290.003906 114.585938 L 290.003906 83.441406 C 290.003906 78.054688 287.316406 75.363281 281.9375 75.363281 C 279.984375 75.363281 278.371094 74.722656 277.089844 73.441406 C 275.8125 72.160156 275.175781 70.542969 275.175781 68.585938 C 275.175781 66.675781 275.8125 65.058594 277.089844 63.730469 C 278.371094 62.40625 279.984375 61.746094 281.9375 61.746094 C 296.378906 61.746094 303.597656 68.976562 303.597656 83.441406 " fill-opacity="1" fill-rule="nonzero"/></g><g clip-path="url(#95a0a25c0a)"><path fill="#000000" d="M 207.851562 67.148438 C 207.851562 68.277344 207.632812 69.328125 207.199219 70.308594 C 206.765625 71.285156 206.191406 72.144531 205.476562 72.878906 C 204.761719 73.621094 203.902344 74.195312 202.90625 74.605469 C 201.910156 75.019531 200.871094 75.226562 199.785156 75.226562 C 197.789062 75.226562 196.078125 74.53125 194.648438 73.140625 C 193.214844 71.75 192.042969 70.046875 191.132812 68.027344 C 190.222656 66.007812 189.5625 63.921875 189.148438 61.769531 C 188.738281 59.621094 188.53125 57.609375 188.53125 55.742188 C 188.53125 48.054688 191.804688 40.28125 198.351562 32.417969 C 199.523438 31.242188 200.847656 30.65625 202.324219 30.65625 C 203.835938 30.65625 205.140625 31.199219 206.222656 32.285156 C 207.308594 33.371094 207.851562 34.675781 207.851562 36.195312 C 207.851562 36.933594 207.699219 37.695312 207.398438 38.476562 C 205.441406 43.253906 204.46875 47.792969 204.46875 52.09375 C 204.46875 56.179688 205.355469 60.132812 207.136719 63.953125 C 207.613281 65.039062 207.851562 66.105469 207.851562 67.148438 Z M 186.453125 67.148438 C 186.453125 68.277344 186.234375 69.328125 185.800781 70.308594 C 185.367188 71.285156 184.792969 72.144531 184.078125 72.878906 C 183.363281 73.621094 182.503906 74.195312 181.507812 74.605469 C 180.507812 75.019531 179.46875 75.226562 178.386719 75.226562 C 176.390625 75.226562 174.679688 74.53125 173.246094 73.140625 C 171.816406 71.75 170.644531 70.046875 169.734375 68.027344 C 168.824219 66.007812 168.160156 63.921875 167.75 61.769531 C 167.339844 59.621094 167.132812 57.609375 167.132812 55.742188 C 167.132812 48.054688 170.40625 40.28125 176.953125 32.417969 C 178.125 31.242188 179.445312 30.65625 180.921875 30.65625 C 182.4375 30.65625 183.738281 31.199219 184.824219 32.285156 C 185.910156 33.371094 186.453125 34.675781 186.453125 36.195312 C 186.453125 36.933594 186.296875 37.695312 185.996094 38.476562 C 184.042969 43.253906 183.066406 47.792969 183.066406 52.09375 C 183.066406 56.179688 183.957031 60.132812 185.734375 63.953125 C 186.210938 65.039062 186.453125 66.105469 186.453125 67.148438 " fill-opacity="1" fill-rule="nonzero"/></g><path fill="#ffffff" d="M 269.441406 101.078125 C 268.546875 102.550781 267.023438 103.417969 265.519531 104.257812 C 266.15625 105.179688 266.132812 106.414062 265.847656 107.496094 C 265.566406 108.578125 265.050781 109.585938 264.761719 110.667969 C 264.472656 111.75 264.546875 113.183594 265.175781 114.105469 C 264.3125 114.140625 263.585938 114.832031 263.234375 115.628906 C 262.886719 116.421875 262.832031 117.304688 262.757812 118.167969 C 262.683594 119.03125 262.566406 119.921875 262.117188 120.660156 L 262.132812 120.664062 C 263.375 121.15625 264.664062 121.679688 265.542969 122.6875 C 265.796875 122.984375 266.015625 123.320312 266.152344 123.683594 C 266.457031 124.515625 266.332031 125.464844 265.988281 126.28125 C 265.644531 127.101562 265.101562 127.824219 264.570312 128.53125 C 265.265625 129.226562 266.40625 130.003906 266.722656 130.9375 C 266.921875 131.53125 266.941406 132.171875 267.027344 132.792969 C 267.335938 134.996094 268.503906 137.066406 268.429688 139.289062 L 268.429688 139.292969 C 268.425781 139.519531 268.261719 139.710938 268.066406 139.828125 C 267.871094 139.945312 267.652344 140.007812 267.453125 140.109375 C 266.761719 140.464844 266.394531 141.25 266.25 142.015625 C 266.105469 142.78125 266.128906 143.570312 265.964844 144.332031 C 265.636719 145.882812 264.449219 147.140625 263.417969 148.347656 C 263.980469 149.054688 264.550781 149.769531 264.871094 150.609375 C 265.191406 151.449219 265.226562 152.445312 264.75 153.207031 C 264.164062 154.140625 262.757812 154.585938 261.691406 154.867188 C 262.476562 155.628906 263.308594 156.46875 263.464844 157.550781 C 263.574219 158.300781 263.339844 159.066406 263.4375 159.820312 C 263.523438 160.46875 263.851562 161.070312 264.273438 161.566406 C 264.695312 162.0625 265.210938 162.480469 265.71875 162.894531 C 264.796875 164.273438 264.890625 166.246094 265.324219 167.847656 C 265.753906 169.449219 266.519531 170.945312 266.945312 172.550781 C 267.488281 174.597656 267.449219 176.792969 266.847656 178.824219 C 264.09375 179.476562 260.902344 179.484375 258.226562 178.566406 C 256.996094 178.144531 255.816406 177.566406 254.542969 177.289062 C 253.269531 177.015625 251.738281 177.058594 250.703125 177.84375 C 250.230469 177.0625 249.5 176.441406 248.65625 176.101562 C 247.675781 175.707031 246.589844 175.695312 245.546875 175.527344 C 244.503906 175.359375 243.339844 174.910156 242.75 174.03125 C 242.5 175.132812 241.984375 176.171875 241.257812 177.035156 C 240.996094 177.34375 240.679688 177.644531 240.28125 177.703125 C 239.980469 177.746094 239.683594 177.644531 239.398438 177.53125 C 238.332031 177.113281 237.277344 176.472656 236.339844 175.8125 C 235.785156 175.785156 235.28125 176.148438 234.894531 176.546875 C 234.511719 176.945312 234.175781 177.417969 233.707031 177.710938 C 232.503906 178.46875 230.871094 177.878906 229.546875 178.394531 C 228.460938 178.816406 227.542969 179.84375 226.949219 180.847656 C 226.566406 180.523438 226.058594 180.410156 225.5625 180.367188 C 225.0625 180.328125 224.5625 180.34375 224.074219 180.234375 C 223.347656 180.070312 222.707031 179.640625 221.996094 179.410156 C 220.988281 179.085938 219.882812 179.183594 218.882812 178.855469 C 217.742188 178.484375 216.851562 177.601562 216.007812 176.75 C 214.953125 177.542969 214.464844 177.71875 213.238281 178.203125 C 212.75 178.398438 212.214844 178.570312 211.699219 178.445312 C 211.273438 178.339844 210.917969 178.042969 210.609375 177.730469 C 209.691406 176.824219 208.953125 175.652344 208.445312 174.464844 C 207.105469 175.148438 205.445312 174.640625 204.011719 175.09375 C 203.007812 175.414062 202.113281 176.265625 201.761719 177.265625 C 201.039062 176.570312 199.882812 176.566406 198.925781 176.863281 C 197.96875 177.160156 197.105469 177.703125 196.148438 178.003906 C 194.855469 178.402344 193.414062 178.320312 192.175781 177.765625 L 192.179688 177.496094 C 191.710938 179.28125 190.433594 180.835938 188.777344 181.640625 C 188.308594 181.867188 187.789062 182.039062 187.277344 181.960938 C 186.847656 181.890625 186.460938 181.652344 186.109375 181.398438 C 184.8125 180.472656 183.707031 179.28125 182.882812 177.914062 C 181.410156 178.167969 179.910156 178.417969 178.539062 177.824219 C 177.839844 177.519531 177.230469 177.015625 176.515625 176.75 C 175.394531 176.335938 174.046875 176.605469 173.164062 177.414062 C 172.988281 176.554688 172.25 175.839844 171.449219 175.484375 C 170.648438 175.125 169.761719 175.027344 168.886719 174.933594 C 168.015625 174.84375 167.128906 174.742188 166.328125 174.371094 C 166.191406 175.648438 165.679688 176.628906 164.816406 177.582031 C 164.46875 177.964844 164.046875 178.320312 163.535156 178.398438 C 163.207031 178.449219 162.867188 178.378906 162.546875 178.292969 C 161.375 177.976562 160.265625 177.449219 159.289062 176.734375 C 157.691406 177.285156 156.742188 178.953125 155.09375 179.324219 C 154.320312 179.492188 153.492188 179.339844 152.71875 179.511719 C 152.109375 179.648438 151.566406 179.96875 150.96875 180.144531 C 149.914062 180.457031 148.714844 180.3125 147.773438 180.875 C 147.277344 179.746094 146.066406 178.824219 144.882812 178.488281 C 144.183594 178.289062 143.445312 178.273438 142.738281 178.121094 C 141.382812 177.832031 139.898438 176.789062 139.078125 175.675781 C 138.472656 176.238281 138.359375 176.34375 137.640625 176.761719 C 136.917969 177.179688 136.074219 177.425781 135.257812 177.304688 C 134.511719 177.191406 133.828125 176.765625 133.351562 176.183594 C 132.867188 175.605469 132.476562 174.640625 132.378906 173.890625 C 131.753906 174.894531 130.601562 175.511719 129.429688 175.632812 C 128.625 175.714844 127.808594 175.585938 127.015625 175.734375 C 125.90625 175.941406 124.730469 176.890625 124.265625 177.914062 C 123.285156 177.191406 121.96875 177.097656 120.757812 177.265625 C 118.808594 177.535156 117 178.386719 115.105469 178.890625 C 112.917969 179.476562 109.863281 179.492188 108.136719 178.824219 C 107.527344 176.796875 107.496094 174.601562 108.039062 172.554688 C 108.464844 170.953125 109.230469 169.453125 109.660156 167.851562 C 110.09375 166.25 110.191406 164.277344 109.265625 162.898438 C 109.777344 162.484375 110.289062 162.070312 110.710938 161.570312 C 111.132812 161.066406 111.460938 160.472656 111.546875 159.824219 C 111.640625 159.070312 111.40625 158.304688 111.515625 157.554688 C 111.675781 156.472656 112.507812 155.632812 113.289062 154.871094 C 112.222656 154.59375 110.820312 154.144531 110.234375 153.210938 C 109.757812 152.449219 109.792969 151.453125 110.113281 150.613281 C 110.433594 149.773438 111.003906 149.050781 111.566406 148.351562 C 110.535156 147.144531 109.347656 145.890625 109.015625 144.335938 C 108.855469 143.574219 108.882812 142.785156 108.734375 142.019531 C 108.589844 141.253906 108.222656 140.46875 107.53125 140.113281 C 107.332031 140.011719 107.109375 139.949219 106.917969 139.832031 C 106.722656 139.714844 106.554688 139.523438 106.550781 139.296875 L 106.550781 139.292969 C 106.472656 137.074219 107.644531 135 107.953125 132.796875 C 108.042969 132.175781 108.0625 131.535156 108.261719 130.941406 C 108.578125 130.007812 109.714844 129.234375 110.414062 128.535156 C 109.875 127.824219 109.335938 127.105469 108.996094 126.285156 C 108.652344 125.464844 108.519531 124.515625 108.832031 123.683594 C 108.964844 123.320312 109.183594 122.984375 109.441406 122.691406 C 110.3125 121.683594 111.609375 121.15625 112.847656 120.667969 L 112.867188 120.664062 C 112.417969 119.921875 112.304688 119.035156 112.226562 118.171875 C 112.152344 117.308594 112.097656 116.417969 111.75 115.632812 C 111.402344 114.839844 110.675781 114.144531 109.808594 114.109375 C 110.433594 113.179688 110.507812 111.753906 110.222656 110.671875 C 109.933594 109.59375 109.417969 108.578125 109.136719 107.496094 C 108.851562 106.414062 108.828125 105.183594 109.464844 104.261719 C 107.960938 103.421875 106.4375 102.554688 105.539062 101.082031 C 105.203125 100.53125 104.96875 99.871094 105.085938 99.234375 C 105.175781 98.75 105.453125 98.324219 105.753906 97.933594 C 106.246094 97.296875 106.8125 96.722656 107.445312 96.21875 C 107.867188 95.886719 108.320312 95.574219 108.65625 95.152344 C 108.992188 94.730469 109.191406 94.15625 109.007812 93.644531 C 108.910156 92.792969 108.941406 91.773438 109.207031 90.957031 C 109.511719 90.042969 110.183594 89.28125 110.457031 88.355469 C 110.773438 87.304688 110.53125 86.058594 109.808594 85.230469 C 110.3125 85.019531 110.839844 84.789062 111.199219 84.378906 C 111.527344 84.003906 111.6875 83.523438 111.8125 83.042969 C 112.167969 81.707031 112.289062 80.320312 112.410156 78.945312 C 112.421875 78.8125 112.433594 78.664062 112.355469 78.546875 C 112.289062 78.429688 111.84375 78.316406 111.757812 78.421875 C 110.234375 78.054688 108.984375 76.730469 108.707031 75.1875 C 108.429688 73.640625 109.144531 71.96875 110.449219 71.09375 C 109.3125 70.382812 108.511719 69.125 108.105469 67.84375 C 107.695312 66.5625 107.566406 65.214844 107.363281 63.886719 C 107.15625 62.558594 106.859375 61.210938 106.167969 60.058594 C 107.25 59.246094 108.414062 58.460938 108.773438 57.214844 C 109.039062 56.304688 108.976562 55.324219 109.195312 54.398438 C 109.492188 53.121094 110.332031 51.984375 111.460938 51.328125 C 110.90625 50.621094 110.355469 49.707031 110.078125 48.851562 C 109.800781 47.996094 109.792969 47.019531 110.257812 46.25 C 110.84375 45.269531 112.148438 44.769531 113.261719 44.507812 L 113.308594 44.507812 C 112.757812 44.097656 112.777344 44.128906 112.378906 43.570312 C 111.898438 42.894531 111.6875 42.054688 111.5625 41.226562 C 111.4375 40.398438 111.382812 39.558594 111.148438 38.757812 C 111.167969 38.183594 110.863281 37.507812 110.382812 37.195312 C 110.066406 36.992188 109.65625 36.863281 109.5 36.519531 C 109.402344 36.296875 109.449219 36.03125 109.574219 35.828125 C 109.699219 35.621094 109.925781 35.433594 110.140625 35.316406 C 110.070312 33.027344 109.140625 30.863281 108.550781 28.648438 C 107.820312 25.933594 107.597656 23.089844 107.894531 20.292969 C 109.625 19.628906 112.933594 19.792969 115.117188 20.378906 C 117.011719 20.882812 118.824219 21.734375 120.769531 22.003906 C 121.976562 22.167969 123.296875 22.078125 124.28125 21.351562 C 124.746094 22.382812 125.917969 23.332031 127.027344 23.535156 C 127.820312 23.683594 128.636719 23.554688 129.441406 23.636719 C 130.621094 23.757812 131.769531 24.375 132.394531 25.378906 C 132.496094 24.628906 132.886719 23.667969 133.363281 23.082031 C 133.847656 22.503906 134.527344 22.082031 135.273438 21.964844 C 136.09375 21.839844 136.933594 22.089844 137.652344 22.507812 C 138.375 22.921875 138.484375 23.027344 139.09375 23.59375 C 139.917969 22.480469 141.394531 21.433594 142.75 21.148438 C 143.460938 20.996094 144.199219 20.980469 144.894531 20.78125 C 146.082031 20.441406 147.289062 19.527344 147.785156 18.394531 C 148.734375 18.957031 149.925781 18.808594 150.980469 19.125 C 151.574219 19.300781 152.125 19.621094 152.730469 19.753906 C 153.511719 19.925781 154.332031 19.773438 155.109375 19.945312 C 156.757812 20.3125 157.703125 21.988281 159.300781 22.53125 C 160.28125 21.820312 161.390625 21.285156 162.558594 20.976562 C 162.882812 20.886719 163.21875 20.816406 163.550781 20.871094 C 164.058594 20.949219 164.484375 21.300781 164.832031 21.6875 C 165.6875 22.640625 166.203125 23.617188 166.34375 24.894531 C 167.140625 24.527344 168.027344 24.425781 168.902344 24.332031 C 169.773438 24.238281 170.660156 24.140625 171.464844 23.785156 C 172.265625 23.425781 173 22.710938 173.175781 21.855469 C 174.058594 22.664062 175.40625 22.929688 176.53125 22.519531 C 177.25 22.253906 177.851562 21.746094 178.554688 21.445312 C 179.921875 20.855469 181.421875 21.105469 182.894531 21.351562 C 183.722656 19.988281 184.824219 18.796875 186.121094 17.871094 C 186.480469 17.613281 186.859375 17.378906 187.292969 17.308594 C 187.808594 17.230469 188.328125 17.402344 188.792969 17.628906 C 190.449219 18.429688 191.726562 19.988281 192.195312 21.769531 L 192.191406 21.5 C 193.429688 20.949219 194.867188 20.863281 196.164062 21.265625 C 197.121094 21.5625 197.984375 22.105469 198.941406 22.402344 C 199.894531 22.699219 201.046875 22.691406 201.777344 22.003906 C 202.121094 22.996094 203.015625 23.851562 204.023438 24.171875 C 205.457031 24.625 207.121094 24.117188 208.457031 24.804688 C 208.96875 23.617188 209.707031 22.449219 210.621094 21.535156 C 210.933594 21.222656 211.285156 20.925781 211.710938 20.820312 C 212.226562 20.695312 212.761719 20.867188 213.253906 21.0625 C 214.472656 21.550781 214.96875 21.726562 216.019531 22.515625 C 216.867188 21.664062 217.753906 20.789062 218.894531 20.414062 C 219.898438 20.082031 221.007812 20.179688 222.007812 19.855469 C 222.71875 19.628906 223.359375 19.195312 224.089844 19.035156 C 224.578125 18.925781 225.078125 18.945312 225.574219 18.898438 C 226.070312 18.859375 226.582031 18.742188 226.960938 18.421875 C 227.558594 19.421875 228.472656 20.453125 229.5625 20.871094 C 230.890625 21.382812 232.523438 20.792969 233.722656 21.554688 C 234.195312 21.851562 234.523438 22.320312 234.910156 22.71875 C 235.292969 23.117188 235.796875 23.480469 236.351562 23.453125 C 237.289062 22.800781 238.347656 22.15625 239.414062 21.734375 C 239.695312 21.625 239.992188 21.519531 240.296875 21.5625 C 240.695312 21.621094 241.011719 21.921875 241.269531 22.230469 C 242 23.097656 242.515625 24.136719 242.765625 25.234375 C 243.355469 24.359375 244.515625 23.90625 245.558594 23.742188 C 246.605469 23.574219 247.683594 23.558594 248.671875 23.164062 C 249.515625 22.824219 250.242188 22.203125 250.71875 21.425781 C 251.753906 22.214844 253.285156 22.253906 254.558594 21.976562 C 255.828125 21.703125 257.007812 21.117188 258.238281 20.699219 C 260.917969 19.785156 264.355469 19.636719 267.117188 20.292969 C 267.410156 23.085938 267.1875 25.929688 266.460938 28.648438 C 265.867188 30.863281 264.933594 33.019531 264.867188 35.3125 C 265.082031 35.425781 265.304688 35.613281 265.433594 35.824219 C 265.566406 36.035156 265.605469 36.296875 265.507812 36.515625 C 265.355469 36.863281 264.941406 36.992188 264.625 37.195312 C 264.148438 37.503906 263.839844 38.183594 263.859375 38.753906 C 263.632812 39.558594 263.578125 40.398438 263.445312 41.222656 C 263.316406 42.050781 263.113281 42.886719 262.628906 43.566406 C 262.230469 44.125 262.253906 44.097656 261.703125 44.503906 L 261.746094 44.503906 C 262.863281 44.765625 264.160156 45.265625 264.75 46.246094 C 265.210938 47.015625 265.210938 47.996094 264.933594 48.851562 C 264.652344 49.703125 264.105469 50.617188 263.550781 51.324219 C 264.675781 51.984375 265.519531 53.125 265.816406 54.398438 C 266.027344 55.320312 265.972656 56.296875 266.238281 57.210938 C 266.597656 58.457031 267.761719 59.246094 268.839844 60.058594 C 268.144531 61.207031 267.851562 62.554688 267.648438 63.882812 C 267.445312 65.210938 267.316406 66.5625 266.90625 67.84375 C 266.496094 69.125 265.703125 70.378906 264.5625 71.09375 C 265.867188 71.964844 266.578125 73.640625 266.300781 75.183594 C 266.027344 76.726562 264.777344 78.054688 263.253906 78.417969 C 263.167969 78.3125 262.722656 78.429688 262.652344 78.542969 C 262.582031 78.660156 262.59375 78.804688 262.601562 78.945312 C 262.722656 80.320312 262.847656 81.707031 263.195312 83.042969 C 263.320312 83.519531 263.484375 84.003906 263.808594 84.375 C 264.171875 84.789062 264.695312 85.015625 265.203125 85.230469 C 264.476562 86.054688 264.238281 87.300781 264.550781 88.355469 C 264.828125 89.277344 265.5 90.039062 265.800781 90.953125 C 266.070312 91.765625 266.097656 92.789062 266 93.640625 C 265.820312 94.148438 266.019531 94.730469 266.355469 95.152344 C 266.6875 95.574219 267.144531 95.878906 267.566406 96.21875 C 268.191406 96.71875 268.761719 97.296875 269.253906 97.933594 C 269.558594 98.320312 269.835938 98.75 269.925781 99.230469 C 270.019531 99.867188 269.78125 100.519531 269.441406 101.078125 Z M 269.441406 101.078125 " fill-opacity="1" fill-rule="nonzero"/><g clip-path="url(#f97dc7e964)"><path fill="#ffffff" d="M 103.480469 15.640625 L 271.480469 15.640625 L 271.480469 183.640625 L 103.480469 183.640625 Z M 103.480469 15.640625 " fill-opacity="1" fill-rule="nonzero"/></g><path fill="#4a87ce" d="M 151.195312 120.988281 L 153.65625 120.988281 C 154.292969 120.988281 154.804688 120.46875 154.804688 119.832031 L 154.804688 101.097656 C 154.804688 100.46875 154.292969 99.953125 153.65625 99.953125 L 151.195312 99.953125 C 150.5625 99.953125 150.046875 100.46875 150.046875 101.097656 L 150.046875 106.199219 C 150.046875 107.074219 149.328125 107.789062 148.441406 107.789062 L 144.859375 107.789062 C 143.976562 107.789062 143.261719 107.074219 143.261719 106.199219 L 143.261719 101.097656 C 143.261719 100.46875 142.742188 99.953125 142.101562 99.953125 L 139.675781 99.953125 C 139.039062 99.953125 138.527344 100.46875 138.527344 101.097656 L 138.527344 119.832031 C 138.527344 120.46875 139.039062 120.988281 139.675781 120.988281 L 142.101562 120.988281 C 142.742188 120.988281 143.261719 120.46875 143.261719 119.832031 L 143.261719 113.792969 C 143.261719 112.917969 143.976562 112.203125 144.859375 112.203125 L 148.441406 112.203125 C 149.328125 112.203125 150.046875 112.917969 150.046875 113.792969 L 150.046875 119.832031 C 150.046875 120.46875 150.5625 120.988281 151.195312 120.988281 " fill-opacity="1" fill-rule="nonzero"/><path fill="#4a87ce" d="M 164.136719 120.988281 L 166.585938 120.988281 C 167.226562 120.988281 167.746094 120.46875 167.746094 119.832031 L 167.746094 105.90625 C 167.746094 105.019531 168.460938 104.304688 169.339844 104.304688 L 172.335938 104.304688 C 172.96875 104.304688 173.484375 103.789062 173.484375 103.160156 L 173.484375 101.097656 C 173.484375 100.46875 172.96875 99.953125 172.335938 99.953125 L 158.421875 99.953125 C 157.78125 99.953125 157.261719 100.46875 157.261719 101.097656 L 157.261719 103.160156 C 157.261719 103.789062 157.78125 104.304688 158.421875 104.304688 L 161.382812 104.304688 C 162.261719 104.304688 162.980469 105.019531 162.980469 105.90625 L 162.980469 119.832031 C 162.980469 120.46875 163.496094 120.988281 164.136719 120.988281 " fill-opacity="1" fill-rule="nonzero"/><path fill="#4a87ce" d="M 182.765625 120.988281 L 185.21875 120.988281 C 185.855469 120.988281 186.375 120.46875 186.375 119.832031 L 186.375 105.90625 C 186.375 105.019531 187.09375 104.304688 187.972656 104.304688 L 190.96875 104.304688 C 191.605469 104.304688 192.125 103.789062 192.125 103.160156 L 192.125 101.097656 C 192.125 100.46875 191.605469 99.953125 190.96875 99.953125 L 177.050781 99.953125 C 176.414062 99.953125 175.894531 100.46875 175.894531 101.097656 L 175.894531 103.160156 C 175.894531 103.789062 176.414062 104.304688 177.050781 104.304688 L 180.011719 104.304688 C 180.894531 104.304688 181.609375 105.019531 181.609375 105.90625 L 181.609375 119.832031 C 181.609375 120.46875 182.128906 120.988281 182.765625 120.988281 " fill-opacity="1" fill-rule="nonzero"/><path fill="#4a87ce" d="M 199.101562 104.0625 L 199.316406 104.054688 C 199.601562 104.039062 199.914062 104.03125 200.230469 104.03125 C 202.441406 104.03125 203.519531 104.855469 203.519531 106.550781 C 203.519531 107.617188 203.054688 109.40625 199.957031 109.40625 C 199.730469 109.40625 199.515625 109.398438 199.316406 109.390625 L 199.101562 109.371094 Z M 195.519531 120.988281 L 197.953125 120.988281 C 198.582031 120.988281 199.101562 120.46875 199.101562 119.832031 L 199.101562 113.632812 L 199.335938 113.640625 C 199.523438 113.648438 199.714844 113.648438 199.902344 113.648438 C 202.683594 113.648438 205.015625 112.789062 206.484375 111.238281 C 207.65625 110.035156 208.253906 108.417969 208.253906 106.4375 C 208.253906 104.484375 207.535156 102.789062 206.222656 101.664062 C 204.859375 100.433594 202.820312 99.8125 200.179688 99.8125 C 198.445312 99.8125 196.863281 99.933594 195.335938 100.191406 C 194.777344 100.277344 194.371094 100.761719 194.371094 101.320312 L 194.371094 119.832031 C 194.371094 120.46875 194.886719 120.988281 195.519531 120.988281 " fill-opacity="1" fill-rule="nonzero"/><path fill="#4a87ce" d="M 211.4375 115.808594 C 211.074219 115.929688 210.808594 116.203125 210.703125 116.554688 L 210.089844 118.585938 C 209.953125 119.042969 210.109375 119.523438 210.480469 119.816406 C 210.503906 119.832031 210.566406 119.886719 210.566406 119.886719 C 211.816406 120.710938 213.992188 121.261719 215.988281 121.261719 C 221.332031 121.261719 223.722656 117.976562 223.722656 114.722656 C 223.722656 114.472656 223.714844 114.234375 223.6875 114 C 223.359375 110.558594 220.582031 109.0625 218.1875 108.152344 C 215.640625 107.160156 215.195312 106.542969 215.195312 105.605469 C 215.195312 104.839844 215.816406 103.945312 217.585938 103.945312 C 217.878906 103.945312 218.179688 103.96875 218.5 104.011719 C 218.5625 104.019531 218.628906 104.039062 218.691406 104.046875 L 218.800781 104.074219 C 218.984375 104.105469 219.148438 104.140625 219.304688 104.175781 C 219.378906 104.203125 219.441406 104.21875 219.511719 104.246094 L 219.632812 104.289062 C 219.753906 104.320312 219.871094 104.363281 219.976562 104.40625 C 220.0625 104.441406 220.140625 104.476562 220.289062 104.546875 L 220.3125 104.554688 C 220.363281 104.582031 220.417969 104.605469 220.46875 104.632812 L 220.460938 104.648438 L 220.617188 104.710938 L 220.398438 105.492188 L 220.570312 105.535156 L 220.570312 105.542969 L 220.8125 105.605469 L 220.898438 105.613281 L 220.898438 105.605469 L 221.082031 105.636719 L 221.238281 104.828125 L 221.417969 104.8125 L 221.417969 104.804688 C 221.46875 104.796875 221.523438 104.777344 221.574219 104.753906 C 221.882812 104.632812 222.136719 104.375 222.246094 104.054688 L 222.910156 102.078125 C 223.058594 101.664062 222.945312 101.207031 222.625 100.898438 C 222.550781 100.820312 222.472656 100.761719 222.394531 100.707031 C 222.296875 100.664062 222.195312 100.605469 222.089844 100.554688 C 221.609375 100.320312 220.789062 99.996094 219.613281 99.804688 C 218.964844 99.695312 218.328125 99.640625 217.664062 99.640625 C 213.46875 99.640625 210.429688 102.265625 210.429688 105.878906 C 210.429688 110.25 214.726562 111.765625 216.132812 112.261719 C 218.492188 113.167969 218.941406 113.890625 218.941406 114.914062 C 218.941406 115.136719 218.90625 115.34375 218.84375 115.53125 C 218.570312 116.445312 217.585938 116.960938 216.160156 116.960938 C 215.53125 116.960938 214.855469 116.867188 214.210938 116.683594 C 214.175781 116.675781 214.148438 116.660156 214.078125 116.632812 C 213.449219 116.445312 212.886719 116.203125 212.363281 115.886719 C 212.292969 115.84375 212.222656 115.816406 212.144531 115.789062 L 212.023438 115.765625 C 211.980469 115.757812 211.9375 115.746094 211.886719 115.738281 L 211.644531 115.746094 C 211.566406 115.765625 211.5 115.78125 211.4375 115.808594 " fill-opacity="1" fill-rule="nonzero"/><path fill="#4a87ce" d="M 212.222656 115.128906 L 212.222656 114.957031 L 211.792969 114.964844 L 211.792969 115.136719 L 212.136719 115.144531 L 212.222656 115.128906 " fill-opacity="1" fill-rule="nonzero"/><path fill="#4a87ce" d="M 228.671875 105.226562 C 226.789062 105.226562 225.363281 106.679688 225.363281 108.605469 C 225.363281 110.515625 226.78125 111.960938 228.644531 111.960938 C 229.558594 111.960938 230.398438 111.617188 231.011719 110.988281 C 231.621094 110.371094 231.949219 109.5 231.949219 108.5625 C 231.90625 106.628906 230.527344 105.226562 228.671875 105.226562 " fill-opacity="1" fill-rule="nonzero"/><path fill="#4a87ce" d="M 228.671875 115.035156 C 226.789062 115.035156 225.363281 116.488281 225.363281 118.414062 C 225.363281 120.332031 226.78125 121.769531 228.644531 121.769531 C 229.558594 121.769531 230.398438 121.425781 231.011719 120.796875 C 231.621094 120.179688 231.949219 119.316406 231.949219 118.371094 C 231.90625 116.4375 230.527344 115.035156 228.671875 115.035156 " fill-opacity="1" fill-rule="nonzero"/><path fill="#4a87ce" d="M 246.171875 99.875 C 245.867188 99.425781 245.359375 99.167969 244.824219 99.167969 L 242.925781 99.167969 C 242.25 99.167969 241.636719 99.582031 241.394531 100.210938 L 233.609375 120.359375 C 233.417969 120.867188 233.488281 121.425781 233.789062 121.871094 C 234.101562 122.3125 234.601562 122.578125 235.136719 122.578125 L 237.011719 122.578125 C 237.683594 122.578125 238.296875 122.15625 238.539062 121.539062 L 246.34375 101.378906 C 246.542969 100.878906 246.472656 100.320312 246.171875 99.875 " fill-opacity="1" fill-rule="nonzero"/><g clip-path="url(#e6e3e2154d)"><path fill="#4a87ce" d="M 255.734375 99.875 C 255.433594 99.425781 254.925781 99.167969 254.378906 99.167969 L 252.488281 99.167969 C 251.816406 99.167969 251.203125 99.582031 250.960938 100.210938 L 243.175781 120.359375 C 242.984375 120.867188 243.054688 121.425781 243.355469 121.871094 C 243.667969 122.3125 244.167969 122.578125 244.703125 122.578125 L 246.574219 122.578125 C 247.25 122.578125 247.863281 122.15625 248.105469 121.539062 L 255.910156 101.378906 C 256.105469 100.878906 256.039062 100.320312 255.734375 99.875 " fill-opacity="1" fill-rule="nonzero"/></g><g clip-path="url(#9818264f7d)"><path fill="#4a87ce" d="M 224.015625 176.015625 C 218.171875 181.839844 212.515625 174.800781 208.5625 170.871094 C 204.238281 166.558594 199.800781 162.324219 195.578125 157.921875 C 193.015625 155.246094 192.339844 151.871094 195.035156 148.90625 C 197.847656 145.789062 201.535156 143.890625 205.246094 147.054688 C 209.160156 150.417969 212.65625 154.445312 216.308594 158.085938 C 220.78125 162.542969 230.25 169.148438 224.015625 176.015625 Z M 222.6875 157.65625 C 217.828125 152.8125 213.191406 147.355469 207.890625 142.996094 C 203.660156 139.5 198.308594 140.199219 194.285156 142.996094 C 191.996094 140.707031 189.691406 138.417969 187.394531 136.128906 C 187.222656 135.957031 187.039062 135.835938 186.859375 135.714844 C 188.421875 133.917969 189.820312 131.992188 191.027344 129.96875 C 191.96875 128.394531 190.785156 126.390625 188.949219 126.390625 L 188.921875 126.390625 C 188.09375 126.390625 187.308594 126.820312 186.882812 127.535156 C 185.496094 129.867188 183.820312 132.042969 181.886719 134.03125 C 171.464844 144.09375 155.605469 146.996094 142.507812 140.394531 C 129.472656 133.824219 121.796875 119.292969 124.050781 104.855469 C 126.304688 90.523438 137.699219 78.976562 152.050781 76.5 C 166.464844 74.011719 181.117188 81.394531 187.921875 94.117188 C 188.335938 94.882812 189.148438 95.347656 190.011719 95.347656 C 191.804688 95.347656 192.988281 93.449219 192.140625 91.871094 C 185.398438 79.355469 171.992188 71.097656 157.453125 71.226562 C 140.496094 71.378906 125.214844 82.863281 120.433594 99.066406 C 115.816406 114.707031 121.796875 131.835938 134.980469 141.417969 C 149.742188 152.164062 170.015625 150.632812 183.578125 138.976562 C 183.691406 139.164062 183.8125 139.355469 183.992188 139.519531 C 186.273438 141.796875 188.558594 144.078125 190.839844 146.351562 C 188.566406 149.464844 187.636719 153.464844 189.265625 157.308594 C 190.371094 159.925781 192.660156 161.808594 194.636719 163.78125 C 197.695312 166.816406 200.742188 169.863281 203.796875 172.910156 C 205.972656 175.066406 208.070312 177.332031 210.324219 179.414062 C 214.996094 183.730469 222.238281 184.128906 227.011719 179.78125 C 227.152344 179.679688 227.289062 179.558594 227.425781 179.414062 C 231.527344 174.886719 232.203125 168.253906 228.273438 163.351562 C 226.625 161.292969 224.550781 159.511719 222.6875 157.65625 " fill-opacity="1" fill-rule="nonzero"/></g><g fill="#4a87ce" fill-opacity="1"><g transform="translate(4.225418, 237.234397)"><g><path d="M 3.6875 -32.265625 C 5.925781 -32.554688 8.21875 -32.703125 10.5625 -32.703125 C 14.945312 -32.703125 18.273438 -31.675781 20.546875 -29.625 C 22.828125 -27.570312 23.96875 -24.503906 23.96875 -20.421875 C 23.96875 -16.765625 22.71875 -13.875 20.21875 -11.75 C 17.882812 -9.757812 14.882812 -8.765625 11.21875 -8.765625 C 10.800781 -8.765625 10.34375 -8.785156 9.84375 -8.828125 L 9.84375 0 L 3.6875 0 Z M 11.296875 -26.875 C 10.804688 -26.875 10.320312 -26.859375 9.84375 -26.828125 L 9.84375 -14.140625 C 10.363281 -14.078125 10.992188 -14.046875 11.734375 -14.046875 C 12.472656 -14.046875 13.242188 -14.203125 14.046875 -14.515625 C 14.847656 -14.828125 15.523438 -15.265625 16.078125 -15.828125 C 17.210938 -17.003906 17.78125 -18.550781 17.78125 -20.46875 C 17.78125 -24.738281 15.617188 -26.875 11.296875 -26.875 Z M 11.296875 -26.875 "/></g></g></g><g fill="#4a87ce" fill-opacity="1"><g transform="translate(28.984607, 237.234397)"><g><path d="M 14.53125 -12.46875 C 14.039062 -12.4375 13.519531 -12.421875 12.96875 -12.421875 C 12.425781 -12.421875 11.617188 -12.460938 10.546875 -12.546875 L 10.546875 0 L 4.15625 0 L 4.15625 -32.265625 C 6.40625 -32.554688 9.171875 -32.703125 12.453125 -32.703125 C 16.921875 -32.703125 20.253906 -31.875 22.453125 -30.21875 C 24.648438 -28.570312 25.75 -26.03125 25.75 -22.59375 C 25.75 -19.914062 24.742188 -17.628906 22.734375 -15.734375 C 22.078125 -15.117188 21.320312 -14.585938 20.46875 -14.140625 L 25.390625 -3.765625 C 26.347656 -1.628906 27.085938 -0.359375 27.609375 0.046875 L 27.484375 0.171875 C 25.921875 -0.0859375 23.46875 -0.0820312 20.125 0.1875 Z M 12.90625 -27 C 12.09375 -27 11.304688 -26.957031 10.546875 -26.875 L 10.546875 -17.671875 C 11.335938 -17.554688 12.257812 -17.5 13.3125 -17.5 C 14.375 -17.5 15.265625 -17.585938 15.984375 -17.765625 C 16.710938 -17.953125 17.34375 -18.238281 17.875 -18.625 C 19.019531 -19.476562 19.59375 -20.757812 19.59375 -22.46875 C 19.59375 -24.175781 19 -25.375 17.8125 -26.0625 C 16.695312 -26.6875 15.0625 -27 12.90625 -27 Z M 12.90625 -27 "/></g></g></g><g fill="#4a87ce" fill-opacity="1"><g transform="translate(57.773799, 237.234397)"><g><path d="M 6.78125 -3.8125 C 5.3125 -5.207031 4.15625 -6.882812 3.3125 -8.84375 C 2.46875 -10.8125 2.046875 -12.96875 2.046875 -15.3125 C 2.046875 -17.65625 2.441406 -19.867188 3.234375 -21.953125 C 4.023438 -24.046875 5.148438 -25.890625 6.609375 -27.484375 C 8.078125 -29.078125 9.847656 -30.34375 11.921875 -31.28125 C 13.992188 -32.226562 16.316406 -32.703125 18.890625 -32.703125 C 23.335938 -32.703125 27.078125 -31.300781 30.109375 -28.5 C 33.359375 -25.507812 34.984375 -21.472656 34.984375 -16.390625 C 34.984375 -11.460938 33.3125 -7.367188 29.96875 -4.109375 C 27.90625 -2.085938 25.453125 -0.703125 22.609375 0.046875 C 21.210938 0.421875 19.578125 0.609375 17.703125 0.609375 C 15.828125 0.609375 13.90625 0.222656 11.9375 -0.546875 C 9.96875 -1.328125 8.25 -2.414062 6.78125 -3.8125 Z M 8.765625 -15.640625 C 8.765625 -14.140625 9.007812 -12.757812 9.5 -11.5 C 10 -10.25 10.691406 -9.175781 11.578125 -8.28125 C 13.460938 -6.375 15.882812 -5.421875 18.84375 -5.421875 C 21.65625 -5.421875 23.914062 -6.332031 25.625 -8.15625 C 27.363281 -10.039062 28.234375 -12.609375 28.234375 -15.859375 C 28.234375 -18.910156 27.40625 -21.457031 25.75 -23.5 C 23.957031 -25.6875 21.507812 -26.78125 18.40625 -26.78125 C 15.40625 -26.78125 13.019531 -25.671875 11.25 -23.453125 C 9.59375 -21.378906 8.765625 -18.773438 8.765625 -15.640625 Z M 8.765625 -15.640625 "/></g></g></g><g fill="#4a87ce" fill-opacity="1"><g transform="translate(94.816055, 237.234397)"><g><path d="M 30.59375 -19.359375 C 30.289062 -18.804688 30.140625 -17.492188 30.140625 -15.421875 L 30.140625 -7.9375 C 30.140625 -5.664062 28.96875 -3.695312 26.625 -2.03125 C 24.1875 -0.269531 21.207031 0.609375 17.6875 0.609375 C 12.800781 0.609375 8.898438 -0.925781 5.984375 -4 C 3.171875 -6.925781 1.765625 -10.660156 1.765625 -15.203125 C 1.765625 -20.023438 3.195312 -24.046875 6.0625 -27.265625 C 9.257812 -30.890625 13.664062 -32.703125 19.28125 -32.703125 C 23.03125 -32.703125 26 -31.976562 28.1875 -30.53125 L 27.796875 -23.40625 L 27.609375 -23.359375 C 27.046875 -24.335938 25.9375 -25.140625 24.28125 -25.765625 C 22.695312 -26.367188 21.039062 -26.671875 19.3125 -26.671875 C 17.582031 -26.671875 16.070312 -26.394531 14.78125 -25.84375 C 13.488281 -25.300781 12.390625 -24.519531 11.484375 -23.5 C 9.585938 -21.425781 8.640625 -18.6875 8.640625 -15.28125 C 8.640625 -12.300781 9.476562 -9.910156 11.15625 -8.109375 C 12.820312 -6.316406 14.972656 -5.421875 17.609375 -5.421875 C 20.523438 -5.421875 22.488281 -6.179688 23.5 -7.703125 C 23.820312 -8.179688 23.984375 -8.726562 23.984375 -9.34375 L 23.984375 -13.34375 L 20.875 -13.34375 C 19.195312 -13.34375 18.285156 -13.195312 18.140625 -12.90625 L 18.078125 -12.9375 L 17.859375 -19.234375 C 18.304688 -19.109375 20.128906 -19.046875 23.328125 -19.046875 L 26.1875 -19.046875 C 27.957031 -19.046875 29.40625 -19.164062 30.53125 -19.40625 Z M 30.59375 -19.359375 "/></g></g></g><g fill="#4a87ce" fill-opacity="1"><g transform="translate(127.73178, 237.234397)"><g><path d="M 14.53125 -12.46875 C 14.039062 -12.4375 13.519531 -12.421875 12.96875 -12.421875 C 12.425781 -12.421875 11.617188 -12.460938 10.546875 -12.546875 L 10.546875 0 L 4.15625 0 L 4.15625 -32.265625 C 6.40625 -32.554688 9.171875 -32.703125 12.453125 -32.703125 C 16.921875 -32.703125 20.253906 -31.875 22.453125 -30.21875 C 24.648438 -28.570312 25.75 -26.03125 25.75 -22.59375 C 25.75 -19.914062 24.742188 -17.628906 22.734375 -15.734375 C 22.078125 -15.117188 21.320312 -14.585938 20.46875 -14.140625 L 25.390625 -3.765625 C 26.347656 -1.628906 27.085938 -0.359375 27.609375 0.046875 L 27.484375 0.171875 C 25.921875 -0.0859375 23.46875 -0.0820312 20.125 0.1875 Z M 12.90625 -27 C 12.09375 -27 11.304688 -26.957031 10.546875 -26.875 L 10.546875 -17.671875 C 11.335938 -17.554688 12.257812 -17.5 13.3125 -17.5 C 14.375 -17.5 15.265625 -17.585938 15.984375 -17.765625 C 16.710938 -17.953125 17.34375 -18.238281 17.875 -18.625 C 19.019531 -19.476562 19.59375 -20.757812 19.59375 -22.46875 C 19.59375 -24.175781 19 -25.375 17.8125 -26.0625 C 16.695312 -26.6875 15.0625 -27 12.90625 -27 Z M 12.90625 -27 "/></g></g></g><g fill="#4a87ce" fill-opacity="1"><g transform="translate(156.520973, 237.234397)"><g><path d="M 6.484375 0.1875 C 5.109375 0.0625 3.492188 0 1.640625 0 L -0.265625 0 L 10.234375 -29.421875 C 10.703125 -30.734375 10.9375 -31.5 10.9375 -31.71875 C 10.9375 -31.9375 10.925781 -32.070312 10.90625 -32.125 L 10.9375 -32.171875 C 11.976562 -32.117188 13.085938 -32.09375 14.265625 -32.09375 C 15.222656 -32.09375 16.378906 -32.109375 17.734375 -32.140625 L 17.765625 -32.09375 C 17.734375 -32.03125 17.71875 -31.941406 17.71875 -31.828125 C 17.71875 -31.523438 17.957031 -30.710938 18.4375 -29.390625 L 29.15625 0.078125 C 28.832031 0.0546875 28.453125 0.046875 28.015625 0.046875 C 28.015625 0.046875 27.597656 0.03125 26.765625 0 C 26.359375 0 25.992188 0 25.671875 0 L 21.9375 0 L 19.671875 -6.953125 L 8.765625 -6.953125 Z M 17.78125 -12.734375 L 14.140625 -23.96875 L 10.59375 -12.734375 Z M 17.78125 -12.734375 "/></g></g></g><g fill="#4a87ce" fill-opacity="1"><g transform="translate(185.406694, 237.234397)"><g><path d="M 10.671875 0.140625 C 9.898438 0.046875 8.410156 0 6.203125 0 L 4.265625 0 L 4.265625 -32.1875 C 5.296875 -32.125 6.429688 -32.09375 7.671875 -32.09375 C 8.910156 -32.09375 9.785156 -32.15625 10.296875 -32.28125 L 18.40625 -18.515625 L 26.203125 -32.28125 C 26.722656 -32.15625 27.707031 -32.09375 29.15625 -32.09375 C 30.601562 -32.09375 31.84375 -32.125 32.875 -32.1875 L 32.875 0 L 30.9375 0 C 28.726562 0 27.238281 0.046875 26.46875 0.140625 L 26.46875 -21.484375 L 18.578125 -7.359375 L 10.671875 -20.34375 Z M 10.671875 0.140625 "/></g></g></g><g fill="#4a87ce" fill-opacity="1"><g transform="translate(222.545478, 237.234397)"><g><path d="M 6.484375 0.1875 C 5.109375 0.0625 3.492188 0 1.640625 0 L -0.265625 0 L 10.234375 -29.421875 C 10.703125 -30.734375 10.9375 -31.5 10.9375 -31.71875 C 10.9375 -31.9375 10.925781 -32.070312 10.90625 -32.125 L 10.9375 -32.171875 C 11.976562 -32.117188 13.085938 -32.09375 14.265625 -32.09375 C 15.222656 -32.09375 16.378906 -32.109375 17.734375 -32.140625 L 17.765625 -32.09375 C 17.734375 -32.03125 17.71875 -31.941406 17.71875 -31.828125 C 17.71875 -31.523438 17.957031 -30.710938 18.4375 -29.390625 L 29.15625 0.078125 C 28.832031 0.0546875 28.453125 0.046875 28.015625 0.046875 C 28.015625 0.046875 27.597656 0.03125 26.765625 0 C 26.359375 0 25.992188 0 25.671875 0 L 21.9375 0 L 19.671875 -6.953125 L 8.765625 -6.953125 Z M 17.78125 -12.734375 L 14.140625 -23.96875 L 10.59375 -12.734375 Z M 17.78125 -12.734375 "/></g></g></g><g fill="#211d1d" fill-opacity="1"><g transform="translate(251.423169, 237.234397)"><g><path d="M 21.0625 -13.875 C 20.289062 -13.957031 19.296875 -14 18.078125 -14 L 10.765625 -14 L 10.765625 0 L 4.15625 0 L 4.15625 -32.265625 C 4.582031 -32.234375 5.078125 -32.207031 5.640625 -32.1875 L 7.4375 -32.140625 C 8.65625 -32.109375 9.925781 -32.09375 11.25 -32.09375 C 15.207031 -32.09375 18.988281 -32.15625 22.59375 -32.28125 C 22.414062 -30.875 22.328125 -28.988281 22.328125 -26.625 C 22.328125 -26.363281 22.34375 -26.164062 22.375 -26.03125 L 22.328125 -25.96875 C 21.472656 -26.207031 20.28125 -26.328125 18.75 -26.328125 L 10.765625 -26.328125 L 10.765625 -19.6875 L 17.8125 -19.6875 C 19.582031 -19.6875 20.644531 -19.738281 21 -19.84375 Z M 21.0625 -13.875 "/></g></g></g><g fill="#211d1d" fill-opacity="1"><g transform="translate(276.085831, 237.234397)"><g><path d="M 6.484375 0.1875 C 5.109375 0.0625 3.492188 0 1.640625 0 L -0.265625 0 L 10.234375 -29.421875 C 10.703125 -30.734375 10.9375 -31.5 10.9375 -31.71875 C 10.9375 -31.9375 10.925781 -32.070312 10.90625 -32.125 L 10.9375 -32.171875 C 11.976562 -32.117188 13.085938 -32.09375 14.265625 -32.09375 C 15.222656 -32.09375 16.378906 -32.109375 17.734375 -32.140625 L 17.765625 -32.09375 C 17.734375 -32.03125 17.71875 -31.941406 17.71875 -31.828125 C 17.71875 -31.523438 17.957031 -30.710938 18.4375 -29.390625 L 29.15625 0.078125 C 28.832031 0.0546875 28.453125 0.046875 28.015625 0.046875 C 28.015625 0.046875 27.597656 0.03125 26.765625 0 C 26.359375 0 25.992188 0 25.671875 0 L 21.9375 0 L 19.671875 -6.953125 L 8.765625 -6.953125 Z M 17.78125 -12.734375 L 14.140625 -23.96875 L 10.59375 -12.734375 Z M 17.78125 -12.734375 "/></g></g></g><g fill="#211d1d" fill-opacity="1"><g transform="translate(304.971552, 237.234397)"><g><path d="M 18.53125 -32.703125 C 21.539062 -32.703125 24.109375 -32.175781 26.234375 -31.125 L 26.234375 -23.75 L 26.1875 -23.703125 C 25.28125 -25.078125 23.378906 -25.992188 20.484375 -26.453125 C 19.628906 -26.597656 18.550781 -26.671875 17.25 -26.671875 C 15.945312 -26.671875 14.664062 -26.421875 13.40625 -25.921875 C 12.15625 -25.429688 11.128906 -24.738281 10.328125 -23.84375 C 8.765625 -22.09375 7.984375 -19.59375 7.984375 -16.34375 C 7.984375 -12.5625 8.972656 -9.742188 10.953125 -7.890625 C 12.597656 -6.347656 14.769531 -5.578125 17.46875 -5.578125 C 20.53125 -5.578125 23.007812 -6.226562 24.90625 -7.53125 C 25.59375 -8 26.179688 -8.578125 26.671875 -9.265625 L 26.734375 -9.21875 L 26.734375 -2.46875 C 24.273438 -0.414062 20.960938 0.609375 16.796875 0.609375 C 11.890625 0.609375 8.046875 -0.953125 5.265625 -4.078125 C 2.585938 -7.054688 1.25 -11 1.25 -15.90625 C 1.25 -21.101562 2.710938 -25.195312 5.640625 -28.1875 C 8.609375 -31.195312 12.90625 -32.703125 18.53125 -32.703125 Z M 18.53125 -32.703125 "/></g></g></g><g fill="#211d1d" fill-opacity="1"><g transform="translate(333.640087, 237.234397)"><g><path d="M 4.90625 -32.1875 C 6.507812 -32.125 7.476562 -32.09375 7.8125 -32.09375 L 9.5625 -32.09375 C 10.40625 -32.09375 11.085938 -32.15625 11.609375 -32.28125 L 11.578125 0 L 4.90625 0 Z M 4.90625 -32.1875 "/></g></g></g><g fill="#211d1d" fill-opacity="1"><g transform="translate(350.146213, 237.234397)"><g><path d="M 8.859375 0 C 6.492188 0 4.925781 0.046875 4.15625 0.140625 L 4.15625 -32.234375 C 4.539062 -32.140625 5.335938 -32.09375 6.546875 -32.09375 C 7.765625 -32.09375 9.175781 -32.125 10.78125 -32.1875 L 10.78125 -5.796875 L 15.78125 -5.796875 C 17.226562 -5.796875 18.382812 -5.84375 19.25 -5.9375 C 19.144531 -2.175781 19.09375 -0.222656 19.09375 -0.078125 L 19.09375 0.171875 C 17.507812 0.0546875 14.863281 0 11.15625 0 Z M 8.859375 0 "/></g></g></g><g fill="#737373" fill-opacity="1"><g transform="translate(78.709706, 271.274302)"><g><path d="M 4.234375 -14.53125 C 5.367188 -14.53125 6.203125 -14.207031 6.734375 -13.5625 C 7.265625 -12.914062 7.53125 -12.035156 7.53125 -10.921875 L 7.53125 -3.59375 C 7.53125 -2.46875 7.265625 -1.585938 6.734375 -0.953125 C 6.203125 -0.316406 5.367188 0 4.234375 0 L 0.828125 0 L 0.828125 -14.53125 Z M 4.21875 -1.46875 C 4.789062 -1.46875 5.21875 -1.644531 5.5 -2 C 5.789062 -2.351562 5.9375 -2.863281 5.9375 -3.53125 L 5.9375 -11 C 5.9375 -11.664062 5.789062 -12.171875 5.5 -12.515625 C 5.21875 -12.867188 4.78125 -13.046875 4.1875 -13.046875 L 2.453125 -13.046875 L 2.453125 -1.46875 Z M 4.21875 -1.46875 "/></g></g></g><g fill="#737373" fill-opacity="1"><g transform="translate(95.233491, 271.274302)"><g><path d="M 6 -8.09375 L 6 -6.640625 L 2.453125 -6.640625 L 2.453125 -1.46875 L 6.8125 -1.46875 L 6.8125 0 L 0.828125 0 L 0.828125 -14.53125 L 6.8125 -14.53125 L 6.8125 -13.046875 L 2.453125 -13.046875 L 2.453125 -8.09375 Z M 6 -8.09375 "/></g></g></g><g fill="#737373" fill-opacity="1"><g transform="translate(111.010249, 271.274302)"><g><path d="M 3.875 -14.671875 C 4.988281 -14.671875 5.804688 -14.34375 6.328125 -13.6875 C 6.859375 -13.03125 7.125 -12.144531 7.125 -11.03125 L 7.125 -10.640625 L 5.578125 -10.640625 L 5.578125 -11.125 C 5.578125 -11.789062 5.445312 -12.300781 5.1875 -12.65625 C 4.925781 -13.019531 4.503906 -13.203125 3.921875 -13.203125 C 3.335938 -13.203125 2.914062 -13.019531 2.65625 -12.65625 C 2.394531 -12.300781 2.265625 -11.796875 2.265625 -11.140625 C 2.265625 -10.597656 2.382812 -10.125 2.625 -9.71875 C 2.863281 -9.320312 3.160156 -8.953125 3.515625 -8.609375 C 3.878906 -8.273438 4.269531 -7.945312 4.6875 -7.625 C 5.113281 -7.300781 5.503906 -6.941406 5.859375 -6.546875 C 6.222656 -6.160156 6.523438 -5.722656 6.765625 -5.234375 C 7.015625 -4.742188 7.140625 -4.160156 7.140625 -3.484375 C 7.140625 -2.378906 6.875 -1.5 6.34375 -0.84375 C 5.8125 -0.1875 4.984375 0.140625 3.859375 0.140625 C 2.734375 0.140625 1.910156 -0.1875 1.390625 -0.84375 C 0.867188 -1.5 0.609375 -2.378906 0.609375 -3.484375 L 0.609375 -4.3125 L 2.109375 -4.3125 L 2.109375 -3.40625 C 2.109375 -2.738281 2.25 -2.222656 2.53125 -1.859375 C 2.8125 -1.503906 3.238281 -1.328125 3.8125 -1.328125 C 4.394531 -1.328125 4.820312 -1.503906 5.09375 -1.859375 C 5.375 -2.222656 5.515625 -2.738281 5.515625 -3.40625 C 5.515625 -3.945312 5.394531 -4.410156 5.15625 -4.796875 C 4.914062 -5.191406 4.613281 -5.554688 4.25 -5.890625 C 3.894531 -6.234375 3.507812 -6.566406 3.09375 -6.890625 C 2.675781 -7.222656 2.285156 -7.582031 1.921875 -7.96875 C 1.566406 -8.351562 1.265625 -8.789062 1.015625 -9.28125 C 0.773438 -9.769531 0.65625 -10.351562 0.65625 -11.03125 C 0.65625 -12.15625 0.914062 -13.039062 1.4375 -13.6875 C 1.96875 -14.34375 2.78125 -14.671875 3.875 -14.671875 Z M 3.875 -14.671875 "/></g></g></g><g fill="#737373" fill-opacity="1"><g transform="translate(127.036014, 271.274302)"><g><path d="M 2.46875 -2.921875 L 1.90625 0 L 0.421875 0 L 3.203125 -14.53125 L 5.546875 -14.53125 L 8.328125 0 L 6.703125 0 L 6.140625 -2.921875 Z M 2.671875 -4.3125 L 5.90625 -4.3125 L 4.28125 -12.703125 Z M 2.671875 -4.3125 "/></g></g></g><g fill="#737373" fill-opacity="1"><g transform="translate(144.099341, 271.274302)"><g><path d="M 4.0625 -14.53125 C 5.21875 -14.53125 6.046875 -14.242188 6.546875 -13.671875 C 7.046875 -13.109375 7.296875 -12.285156 7.296875 -11.203125 L 7.296875 -10.015625 C 7.296875 -9.210938 7.148438 -8.5625 6.859375 -8.0625 C 6.578125 -7.570312 6.125 -7.226562 5.5 -7.03125 C 6.164062 -6.84375 6.632812 -6.488281 6.90625 -5.96875 C 7.1875 -5.445312 7.328125 -4.789062 7.328125 -4 L 7.328125 -1.75 C 7.328125 -1.425781 7.335938 -1.113281 7.359375 -0.8125 C 7.390625 -0.519531 7.472656 -0.25 7.609375 0 L 5.96875 0 C 5.875 -0.207031 5.804688 -0.429688 5.765625 -0.671875 C 5.722656 -0.910156 5.703125 -1.273438 5.703125 -1.765625 L 5.703125 -4.046875 C 5.703125 -4.859375 5.519531 -5.421875 5.15625 -5.734375 C 4.789062 -6.046875 4.269531 -6.203125 3.59375 -6.203125 L 2.453125 -6.203125 L 2.453125 0 L 0.828125 0 L 0.828125 -14.53125 Z M 3.65625 -7.671875 C 4.300781 -7.671875 4.800781 -7.804688 5.15625 -8.078125 C 5.519531 -8.347656 5.703125 -8.878906 5.703125 -9.671875 L 5.703125 -11.0625 C 5.703125 -11.726562 5.570312 -12.222656 5.3125 -12.546875 C 5.0625 -12.878906 4.632812 -13.046875 4.03125 -13.046875 L 2.453125 -13.046875 L 2.453125 -7.671875 Z M 3.65625 -7.671875 "/></g></g></g><g fill="#737373" fill-opacity="1"><g transform="translate(160.581627, 271.274302)"><g><path d="M 4.0625 -14.53125 C 5.21875 -14.53125 6.046875 -14.242188 6.546875 -13.671875 C 7.046875 -13.109375 7.296875 -12.285156 7.296875 -11.203125 L 7.296875 -10.015625 C 7.296875 -9.210938 7.148438 -8.5625 6.859375 -8.0625 C 6.578125 -7.570312 6.125 -7.226562 5.5 -7.03125 C 6.164062 -6.84375 6.632812 -6.488281 6.90625 -5.96875 C 7.1875 -5.445312 7.328125 -4.789062 7.328125 -4 L 7.328125 -1.75 C 7.328125 -1.425781 7.335938 -1.113281 7.359375 -0.8125 C 7.390625 -0.519531 7.472656 -0.25 7.609375 0 L 5.96875 0 C 5.875 -0.207031 5.804688 -0.429688 5.765625 -0.671875 C 5.722656 -0.910156 5.703125 -1.273438 5.703125 -1.765625 L 5.703125 -4.046875 C 5.703125 -4.859375 5.519531 -5.421875 5.15625 -5.734375 C 4.789062 -6.046875 4.269531 -6.203125 3.59375 -6.203125 L 2.453125 -6.203125 L 2.453125 0 L 0.828125 0 L 0.828125 -14.53125 Z M 3.65625 -7.671875 C 4.300781 -7.671875 4.800781 -7.804688 5.15625 -8.078125 C 5.519531 -8.347656 5.703125 -8.878906 5.703125 -9.671875 L 5.703125 -11.0625 C 5.703125 -11.726562 5.570312 -12.222656 5.3125 -12.546875 C 5.0625 -12.878906 4.632812 -13.046875 4.03125 -13.046875 L 2.453125 -13.046875 L 2.453125 -7.671875 Z M 3.65625 -7.671875 "/></g></g></g><g fill="#737373" fill-opacity="1"><g transform="translate(177.063913, 271.274302)"><g><path d="M 0.703125 -11.015625 C 0.703125 -12.140625 0.972656 -13.03125 1.515625 -13.6875 C 2.066406 -14.34375 2.90625 -14.671875 4.03125 -14.671875 C 5.144531 -14.671875 5.976562 -14.34375 6.53125 -13.6875 C 7.082031 -13.03125 7.359375 -12.140625 7.359375 -11.015625 L 7.359375 -3.5 C 7.359375 -2.394531 7.082031 -1.507812 6.53125 -0.84375 C 5.976562 -0.1875 5.144531 0.140625 4.03125 0.140625 C 2.90625 0.140625 2.066406 -0.1875 1.515625 -0.84375 C 0.972656 -1.507812 0.703125 -2.394531 0.703125 -3.5 Z M 2.296875 -3.421875 C 2.296875 -2.753906 2.4375 -2.238281 2.71875 -1.875 C 3.007812 -1.507812 3.445312 -1.328125 4.03125 -1.328125 C 4.625 -1.328125 5.054688 -1.507812 5.328125 -1.875 C 5.609375 -2.238281 5.75 -2.753906 5.75 -3.421875 L 5.75 -11.09375 C 5.75 -11.757812 5.609375 -12.273438 5.328125 -12.640625 C 5.054688 -13.015625 4.625 -13.203125 4.03125 -13.203125 C 3.445312 -13.203125 3.007812 -13.015625 2.71875 -12.640625 C 2.4375 -12.273438 2.296875 -11.757812 2.296875 -11.09375 Z M 2.296875 -3.421875 "/></g></g></g><g fill="#737373" fill-opacity="1"><g transform="translate(193.442456, 271.274302)"><g><path d="M 0.828125 0 L 0.828125 -14.53125 L 2.453125 -14.53125 L 2.453125 -1.46875 L 6.59375 -1.46875 L 6.59375 0 Z M 0.828125 0 "/></g></g></g><g fill="#737373" fill-opacity="1"><g transform="translate(208.74194, 271.274302)"><g><path d="M 0.828125 0 L 0.828125 -14.53125 L 2.453125 -14.53125 L 2.453125 -1.46875 L 6.59375 -1.46875 L 6.59375 0 Z M 0.828125 0 "/></g></g></g><g fill="#737373" fill-opacity="1"><g transform="translate(224.041424, 271.274302)"><g><path d="M 0.703125 -11.015625 C 0.703125 -12.140625 0.972656 -13.03125 1.515625 -13.6875 C 2.066406 -14.34375 2.90625 -14.671875 4.03125 -14.671875 C 5.144531 -14.671875 5.976562 -14.34375 6.53125 -13.6875 C 7.082031 -13.03125 7.359375 -12.140625 7.359375 -11.015625 L 7.359375 -3.5 C 7.359375 -2.394531 7.082031 -1.507812 6.53125 -0.84375 C 5.976562 -0.1875 5.144531 0.140625 4.03125 0.140625 C 2.90625 0.140625 2.066406 -0.1875 1.515625 -0.84375 C 0.972656 -1.507812 0.703125 -2.394531 0.703125 -3.5 Z M 2.296875 -3.421875 C 2.296875 -2.753906 2.4375 -2.238281 2.71875 -1.875 C 3.007812 -1.507812 3.445312 -1.328125 4.03125 -1.328125 C 4.625 -1.328125 5.054688 -1.507812 5.328125 -1.875 C 5.609375 -2.238281 5.75 -2.753906 5.75 -3.421875 L 5.75 -11.09375 C 5.75 -11.757812 5.609375 -12.273438 5.328125 -12.640625 C 5.054688 -13.015625 4.625 -13.203125 4.03125 -13.203125 C 3.445312 -13.203125 3.007812 -13.015625 2.71875 -12.640625 C 2.4375 -12.273438 2.296875 -11.757812 2.296875 -11.09375 Z M 2.296875 -3.421875 "/></g></g></g><g fill="#737373" fill-opacity="1"><g transform="translate(240.419967, 271.274302)"><g/></g></g><g fill="#737373" fill-opacity="1"><g transform="translate(251.942754, 271.274302)"><g><path d="M 4.6875 0 L 2.46875 0 L 0.484375 -14.53125 L 2.046875 -14.53125 L 3.75 -2.15625 L 5.375 -14.5 L 6.96875 -14.5 L 8.5625 -2.140625 L 10.203125 -14.53125 L 11.625 -14.53125 L 9.65625 0 L 7.515625 0 L 6.125 -9.859375 Z M 4.6875 0 "/></g></g></g><g fill="#737373" fill-opacity="1"><g transform="translate(272.346991, 271.274302)"><g><path d="M 6 -8.09375 L 6 -6.640625 L 2.453125 -6.640625 L 2.453125 -1.46875 L 6.8125 -1.46875 L 6.8125 0 L 0.828125 0 L 0.828125 -14.53125 L 6.8125 -14.53125 L 6.8125 -13.046875 L 2.453125 -13.046875 L 2.453125 -8.09375 Z M 6 -8.09375 "/></g></g></g><g fill="#737373" fill-opacity="1"><g transform="translate(288.123742, 271.274302)"><g><path d="M 4.09375 -14.53125 C 5.226562 -14.53125 6.035156 -14.257812 6.515625 -13.71875 C 6.992188 -13.1875 7.234375 -12.382812 7.234375 -11.3125 L 7.234375 -10.625 C 7.234375 -9.851562 7.109375 -9.226562 6.859375 -8.75 C 6.617188 -8.269531 6.179688 -7.929688 5.546875 -7.734375 C 6.242188 -7.546875 6.738281 -7.179688 7.03125 -6.640625 C 7.332031 -6.097656 7.484375 -5.425781 7.484375 -4.625 L 7.484375 -3.40625 C 7.484375 -2.3125 7.210938 -1.46875 6.671875 -0.875 C 6.140625 -0.289062 5.304688 0 4.171875 0 L 0.828125 0 L 0.828125 -14.53125 Z M 3.6875 -8.359375 C 4.34375 -8.359375 4.832031 -8.488281 5.15625 -8.75 C 5.476562 -9.019531 5.640625 -9.535156 5.640625 -10.296875 L 5.640625 -11.140625 C 5.640625 -11.796875 5.519531 -12.273438 5.28125 -12.578125 C 5.039062 -12.890625 4.628906 -13.046875 4.046875 -13.046875 L 2.453125 -13.046875 L 2.453125 -8.359375 Z M 4.171875 -1.46875 C 5.316406 -1.46875 5.890625 -2.125 5.890625 -3.4375 L 5.890625 -4.734375 C 5.890625 -5.546875 5.726562 -6.109375 5.40625 -6.421875 C 5.082031 -6.734375 4.566406 -6.890625 3.859375 -6.890625 L 2.453125 -6.890625 L 2.453125 -1.46875 Z M 4.171875 -1.46875 "/></g></g></g></svg>